HIERARCHY
ROOT Hips
{
	OFFSET 0.000000 0.000000 0.000000
	CHANNELS 6 Xposition Yposition Zposition Xrotation Yrotation Zrotation
	JOINT LeftUpLeg_virtual
	{
		OFFSET 0.000000 0.000000 0.000000
		CHANNELS 3 Xrotation Yrotation Zrotation
		JOINT LeftUpLeg
		{
			OFFSET 10.205400 -3.823500 0.155100
			CHANNELS 3 Xrotation Yrotation Zrotation
			JOINT LeftLeg
			{
				OFFSET 0.708757 -12.982077 0.567790
				CHANNELS 3 Xrotation Yrotation Zrotation
				JOINT LeftFoot
				{
					OFFSET -0.708756 -10.717838 -2.184338
					CHANNELS 3 Xrotation Yrotation Zrotation
					JOINT LeftToeBase
					{
						OFFSET 0.108149 -7.191104 7.560241
						CHANNELS 3 Xrotation Yrotation Zrotation
						JOINT LeftToe_End
						{
							OFFSET 0.070230 0.081724 4.490308
							CHANNELS 3 Xrotation Yrotation Zrotation
							End Site
							{
								OFFSET 0 0 0
							}
						}
					}
				}
			}
		}
	}
	JOINT RightUpLeg_virtual
	{
		OFFSET 0.000000 0.000000 0.000000
		CHANNELS 3 Xrotation Yrotation Zrotation
		JOINT RightUpLeg
		{
			OFFSET -10.205400 -3.823500 0.005500
			CHANNELS 3 Xrotation Yrotation Zrotation
			JOINT RightLeg
			{
				OFFSET -0.708756 -12.982134 0.610632
				CHANNELS 3 Xrotation Yrotation Zrotation
				JOINT RightFoot
				{
					OFFSET 0.708754 -10.717769 -1.945823
					CHANNELS 3 Xrotation Yrotation Zrotation
					JOINT RightToeBase
					{
						OFFSET -0.108140 -7.191069 7.372968
						CHANNELS 3 Xrotation Yrotation Zrotation
						JOINT RightToe_End
						{
							OFFSET -0.070227 0.081735 4.479403
							CHANNELS 3 Xrotation Yrotation Zrotation
							End Site
							{
								OFFSET 0 0 0
							}
						}
					}
				}
			}
		}
	}
	JOINT Spine_virtual
	{
		OFFSET 0.000000 0.000000 0.000000
		CHANNELS 3 Xrotation Yrotation Zrotation
		JOINT Spine
		{
			OFFSET 0.000000 6.876099 0.125700
			CHANNELS 3 Xrotation Yrotation Zrotation
			JOINT Spine1
			{
				OFFSET 0.000000 5.730043 0.104720
				CHANNELS 3 Xrotation Yrotation Zrotation
				JOINT Spine1_split
				{
					OFFSET 0.000000 5.730043 0.104720
					CHANNELS 3 Xrotation Yrotation Zrotation
					JOINT Spine2
					{
						OFFSET 0.000000 5.730043 0.104720
						CHANNELS 3 Xrotation Yrotation Zrotation
						JOINT Neck_virtual
						{
							OFFSET 0.000000 0.000000 0.000000
							CHANNELS 3 Xrotation Yrotation Zrotation
							JOINT Neck
							{
								OFFSET 0.000000 10.314075 0.188496
								CHANNELS 3 Xrotation Yrotation Zrotation
								JOINT Head
								{
									OFFSET 0.000000 7.643700 -2.377400
									CHANNELS 3 Xrotation Yrotation Zrotation
									JOINT HeadTop_End
									{
										OFFSET 0.000000 43.788605 -13.619600
										CHANNELS 3 Xrotation Yrotation Zrotation
										End Site
										{
											OFFSET 0 0 0
										}
									}
								}
							}
						}
						JOINT LeftShoulder_virtual
						{
							OFFSET 0.000000 0.000000 0.000000
							CHANNELS 3 Xrotation Yrotation Zrotation
							JOINT LeftShoulder
							{
								OFFSET 2.196100 4.412489 0.087492
								CHANNELS 3 Xrotation Yrotation Zrotation
								JOINT LeftShoulder_split
								{
									OFFSET 2.196100 4.412489 0.087492
									CHANNELS 3 Xrotation Yrotation Zrotation
									JOINT LeftArm
									{
										OFFSET 8.771219 -2.981674 -0.026999
										CHANNELS 3 Xrotation Yrotation Zrotation
										JOINT LeftForeArm
										{
											OFFSET 8.512804 0.000000 -0.000000
											CHANNELS 3 Xrotation Yrotation Zrotation
											JOINT LeftHand
											{
												OFFSET 18.484802 0.000000 -0.000000
												CHANNELS 3 Xrotation Yrotation Zrotation
												End Site
												{
													OFFSET 0 0 0
												}
											}
										}
									}
								}
							}
						}
						JOINT RightShoulder_virtual
						{
							OFFSET 0.000000 0.000000 0.000000
							CHANNELS 3 Xrotation Yrotation Zrotation
							JOINT RightShoulder
							{
								OFFSET -2.196100 4.412496 0.070690
								CHANNELS 3 Xrotation Yrotation Zrotation
								JOINT RightShoulder_split
								{
									OFFSET -2.196100 4.412496 0.070690
									CHANNELS 3 Xrotation Yrotation Zrotation
									JOINT RightArm
									{
										OFFSET -8.771282 -2.981682 -0.094208
										CHANNELS 3 Xrotation Yrotation Zrotation
										JOINT RightForeArm
										{
											OFFSET -8.494598 0.000000 0.000000
											CHANNELS 3 Xrotation Yrotation Zrotation
											JOINT RightHand
											{
												OFFSET -18.483803 0.000000 0.000001
												CHANNELS 3 Xrotation Yrotation Zrotation
												End Site
												{
													OFFSET 0 0 0
												}
											}
										}
									}
								}
							}
						}
					}
				}
			}
		}
	}
}
MOTION
Frames: 4
Frame Time: 0.03333333
7.561739 13.571014 169.769318 0.000000 0.000000 0.000000 56.301895 -44.339532 94.589138 -66.479987 -12.784114 11.226885 41.750108 -7.810302 2.707486 -9.754728 7.730363 -21.351880 -0.010535 3.570250 -17.092048 0.000000 0.000000 0.000000 47.141498 -45.844441 94.962306 -96.313823 -41.932232 -10.759480 145.915121 -8.129547 -23.227901 45.655228 21.671702 49.909152 14.087513 -4.444157 15.114392 0.000000 0.000000 0.000000 55.482719 -53.084695 95.353273 7.874911 -9.441518 -4.873576 21.996324 -11.357069 -0.008038 -0.684500 2.926998 -1.116325 0.000000 0.000000 0.000000 16.755598 -12.361931 -0.118723 14.417939 3.881427 -7.082402 -7.978253 24.296982 -18.653387 0.000000 0.000000 0.000000 20.722951 -12.288787 1.424866 1.060706 -0.386156 -20.434302 -3.077550 -0.551943 1.931895 3.944707 2.585486 -55.853633 29.709113 -16.813764 -4.193419 0.000000 0.000000 0.000000 19.908398 -12.720111 -0.028675 3.276808 21.698171 4.474440 3.862815 6.923703 6.620997 -31.112154 -9.060776 -0.089217 -27.482429 19.403618 3.770163 0.000000 0.000000 0.000000 
7.618891 13.834714 175.204865 0.000000 0.000000 0.000000 55.176338 -43.429768 88.030900 -75.968519 -16.041345 12.969997 42.539378 -8.739273 -1.446556 -2.857300 6.467589 -26.746690 1.713676 3.224815 -19.361846 0.000000 0.000000 0.000000 44.287418 -44.108269 87.849613 -102.688342 -38.547856 -21.595759 148.004776 -5.029032 -25.180141 47.169703 25.511609 52.811894 15.560815 -4.920226 16.741007 0.000000 0.000000 0.000000 54.034788 -52.760892 89.230199 8.534822 -7.353098 -4.128241 21.970208 -9.242481 -0.094861 -1.499232 2.906514 -0.810977 0.000000 0.000000 0.000000 16.525839 -10.205426 -0.489688 12.482843 3.872267 -5.106993 -11.342811 23.604784 -15.476432 0.000000 0.000000 0.000000 20.165915 -10.176523 0.815090 0.804135 -0.773844 -21.031725 -2.479792 0.047249 2.393869 7.186678 3.858563 -55.106246 31.234766 -16.447379 -4.878937 0.000000 0.000000 0.000000 19.742496 -10.387793 -0.219206 2.516839 21.873257 5.708379 4.301753 5.852328 6.945721 -33.934473 -11.846852 2.942387 -28.462016 17.888504 2.563196 0.000000 0.000000 0.000000 
7.597897 13.890006 180.435959 0.000000 0.000000 0.000000 52.155874 -43.070825 79.866925 -88.007418 -17.767212 14.656447 47.583008 -10.136535 -5.100774 6.537808 2.510697 -30.298490 3.024469 3.189917 -21.182344 0.000000 0.000000 0.000000 41.412158 -43.404377 78.991186 -104.714245 -34.444651 -30.420051 149.344736 -2.056747 -26.001333 46.695685 25.881583 54.106378 19.210884 -4.367887 17.301315 0.000000 0.000000 0.000000 50.311023 -52.425954 80.944934 9.284455 -4.752408 -3.736023 21.324105 -6.865844 -0.535129 -1.769557 2.834460 0.187517 0.000000 0.000000 0.000000 16.013609 -7.804771 -1.185125 9.510135 3.684636 -2.682141 -14.519333 21.983223 -12.096956 0.000000 0.000000 0.000000 19.092607 -7.811557 -0.297779 0.533693 -0.959759 -21.403115 -0.943775 -0.744603 2.344767 11.257110 5.265900 -52.408240 32.559413 -17.808250 -4.729282 0.000000 0.000000 0.000000 19.209699 -7.688531 -0.792224 1.785897 21.234177 7.254790 5.544360 5.196826 6.507288 -34.249854 -16.917791 10.914938 -29.008968 20.981675 2.805865 0.000000 0.000000 0.000000 
7.419212 13.771427 185.564697 0.000000 0.000000 0.000000 47.330154 -43.406125 70.173691 -100.833058 -17.912465 17.203466 57.495364 -11.557697 -7.487614 16.603884 -2.616222 -30.037843 2.020725 3.780380 -21.830260 0.000000 0.000000 0.000000 37.708238 -44.143414 68.542499 -101.545406 -31.986613 -37.313006 150.000353 0.786997 -25.104251 43.783633 21.908745 53.274646 26.305966 -2.503652 16.880976 0.000000 0.000000 0.000000 44.698479 -51.779473 70.877973 9.946214 -1.996317 -3.534891 20.162688 -4.727488 -1.181113 -1.499592 2.848742 1.288701 0.000000 0.000000 0.000000 15.321185 -5.655449 -2.017242 5.914336 3.713964 -0.376898 -17.075618 20.510394 -9.154262 0.000000 0.000000 0.000000 17.744492 -5.687889 -1.660193 0.362582 -0.930495 -21.231539 1.279235 -2.148708 1.978175 15.032017 6.949149 -47.344091 33.418978 -20.735891 -3.880403 0.000000 0.000000 0.000000 18.402002 -5.164672 -1.562166 1.253144 20.003531 8.610437 7.466234 5.254820 5.921037 -29.717231 -22.981843 24.111142 -29.202969 28.769409 4.533185 0.000000 0.000000 0.000000 
